<?xml version="1.0" encoding="UTF-8"?>
<svg width="282px" height="27px" viewBox="0 0 282 27" version="1.1" xmlns="http://www.w3.org/2000/svg" xmlns:xlink="http://www.w3.org/1999/xlink">
    <!-- Generator: Sketch 48.2 (47327) - http://www.bohemiancoding.com/sketch -->
    <title>Title</title>
    <desc>Created with Sketch.</desc>
    <defs></defs>
    <g id="Header" stroke="none" stroke-width="1" fill="none" fill-rule="evenodd" transform="translate(-2.000000, -5.000000)">
        <g transform="translate(0.000000, -5.000000)" fill="#000A12" id="Title">
            <path d="M21.7,31 L21.7,12.268 L14.084,31 L12.292,31 L4.648,12.268 L4.648,31 L2.94,31 L2.94,10.756 L5.936,10.756 L13.244,28.816 L20.496,10.756 L23.492,10.756 L23.492,31 L21.7,31 Z M37.816,31 C37.7786665,30.6639983 37.7413335,30.3233351 37.704,29.978 C37.6666665,29.6326649 37.6293335,29.2920017 37.592,28.956 C36.9946637,29.8520045 36.3226704,30.4679983 35.576,30.804 C34.8293296,31.1400017 33.9240053,31.308 32.86,31.308 C32.2066634,31.308 31.5860029,31.2240008 30.998,31.056 C30.4099971,30.8879992 29.8873356,30.6360017 29.43,30.3 C28.9726644,29.9639983 28.608668,29.5346693 28.338,29.012 C28.067332,28.4893307 27.932,27.8733369 27.932,27.164 C27.932,26.4173296 28.067332,25.7826693 28.338,25.26 C28.608668,24.7373307 28.9726644,24.3033351 29.43,23.958 C29.8873356,23.6126649 30.4099971,23.342001 30.998,23.146 C31.5860029,22.949999 32.2066634,22.8053338 32.86,22.712 C33.5133366,22.6186662 34.1666634,22.5626668 34.82,22.544 C35.4733366,22.5253332 36.0893304,22.516 36.668,22.516 L37.396,22.516 C37.4146668,22.3479992 37.424,22.1846675 37.424,22.026 L37.424,21.536 C37.424,20.3226606 37.1626693,19.4126697 36.64,18.806 C36.1173307,18.1993303 35.2306729,17.896 33.98,17.896 C33.0653288,17.896 32.3186696,18.0779982 31.74,18.442 C31.1613304,18.8060018 30.8160006,19.491995 30.704,20.5 L29.024,20.5 C29.024,19.7906631 29.1686652,19.1886691 29.458,18.694 C29.7473348,18.1993309 30.1206644,17.7980015 30.578,17.49 C31.0353356,17.1819985 31.5626637,16.9580007 32.16,16.818 C32.7573363,16.6779993 33.3639969,16.608 33.98,16.608 C35.7346754,16.608 37.0273292,16.9953295 37.858,17.77 C38.6886708,18.5446705 39.104,19.8093246 39.104,21.564 L39.104,25.764 C39.104,26.6600045 39.1273331,27.5326624 39.174,28.382 C39.2206669,29.2313376 39.2906662,30.1039955 39.384,31 L37.816,31 Z M37.452,23.776 C37.2093321,23.7573332 36.9760011,23.7433334 36.752,23.734 C36.5279989,23.7246666 36.2946679,23.72 36.052,23.72 C35.4546637,23.72 34.787337,23.7433331 34.05,23.79 C33.312663,23.8366669 32.6220032,23.9719989 31.978,24.196 C31.3339968,24.4200011 30.7880022,24.7606644 30.34,25.218 C29.8919978,25.6753356 29.668,26.3053293 29.668,27.108 C29.668,27.5933358 29.765999,28.0226648 29.962,28.396 C30.158001,28.7693352 30.4193317,29.0819987 30.746,29.334 C31.0726683,29.5860013 31.4459979,29.7726661 31.866,29.894 C32.2860021,30.0153339 32.7199978,30.076 33.168,30.076 C34.176005,30.076 34.9646638,29.8940018 35.534,29.53 C36.1033362,29.1659982 36.5326652,28.6853363 36.822,28.088 C37.1113348,27.4906637 37.2886663,26.8186704 37.354,26.072 C37.4193337,25.3253296 37.452,24.5600039 37.452,23.776 Z M49.928,30.972 C49.5919983,31.0093335 49.2606683,31.0419999 48.934,31.07 C48.6073317,31.0980001 48.2760017,31.112 47.94,31.112 C45.9426567,31.112 44.944,30.1040101 44.944,28.088 L44.944,18.12 L42.144,18.12 L42.144,16.86 L44.944,16.86 L44.944,13.948 L46.652,13.192 L46.652,16.86 L49.816,16.86 L49.816,18.12 L46.652,18.12 L46.652,27.332 C46.652,27.724002 46.6706665,28.0693318 46.708,28.368 C46.7453335,28.6666682 46.8339993,28.913999 46.974,29.11 C47.1140007,29.306001 47.3146654,29.4506662 47.576,29.544 C47.8373346,29.6373338 48.1919978,29.684 48.64,29.684 C48.8080008,29.684 49.0086655,29.6653335 49.242,29.628 C49.4753345,29.5906665 49.7039989,29.5533335 49.928,29.516 L49.928,30.972 Z M59.128,30.972 C58.7919983,31.0093335 58.4606683,31.0419999 58.134,31.07 C57.8073317,31.0980001 57.4760017,31.112 57.14,31.112 C55.1426567,31.112 54.144,30.1040101 54.144,28.088 L54.144,18.12 L51.344,18.12 L51.344,16.86 L54.144,16.86 L54.144,13.948 L55.852,13.192 L55.852,16.86 L59.016,16.86 L59.016,18.12 L55.852,18.12 L55.852,27.332 C55.852,27.724002 55.8706665,28.0693318 55.908,28.368 C55.9453335,28.6666682 56.0339993,28.913999 56.174,29.11 C56.3140007,29.306001 56.5146654,29.4506662 56.776,29.544 C57.0373346,29.6373338 57.3919978,29.684 57.84,29.684 C58.0080008,29.684 58.2086655,29.6653335 58.442,29.628 C58.6753345,29.5906665 58.9039989,29.5533335 59.128,29.516 L59.128,30.972 Z M72.052,31 L72.052,23.02 C72.052,22.3666634 72.0193337,21.7460029 71.954,21.158 C71.8886663,20.5699971 71.7346679,20.0520022 71.492,19.604 C71.2493321,19.1559978 70.8900024,18.8013346 70.414,18.54 C69.9379976,18.2786654 69.2986707,18.148 68.496,18.148 C67.6933293,18.148 67.0166694,18.2926652 66.466,18.582 C65.9153306,18.8713348 65.4720017,19.2633309 65.136,19.758 C64.7999983,20.2526691 64.5573341,20.8219968 64.408,21.466 C64.2586659,22.1100032 64.184,22.7773299 64.184,23.468 L64.184,31 L62.476,31 L62.476,10.756 L64.184,10.756 L64.184,19.212 C64.7440028,18.3719958 65.3973296,17.7466687 66.144,17.336 C66.8906704,16.9253313 67.767995,16.72 68.776,16.72 C69.7466715,16.72 70.5493302,16.8459987 71.184,17.098 C71.8186698,17.3500013 72.3273314,17.7186642 72.71,18.204 C73.0926686,18.6893358 73.3633325,19.2773299 73.522,19.968 C73.6806675,20.6586701 73.76,21.4519955 73.76,22.348 L73.76,31 L72.052,31 Z M79.32,24.196 L79.32,24.532 C79.32,25.2413369 79.417999,25.92733 79.614,26.59 C79.810001,27.25267 80.103998,27.8406641 80.496,28.354 C80.888002,28.8673359 81.3779971,29.2779985 81.966,29.586 C82.5540029,29.8940015 83.2399961,30.048 84.024,30.048 C85.1440056,30.048 86.0446633,29.7260032 86.726,29.082 C87.4073367,28.4379968 87.8413324,27.5840053 88.028,26.52 L89.652,26.52 C89.3533318,28.1066746 88.7046717,29.3013293 87.706,30.104 C86.7073283,30.9066707 85.4053414,31.308 83.8,31.308 C82.7173279,31.308 81.7840039,31.1213352 81,30.748 C80.2159961,30.3746648 79.5720025,29.8660032 79.068,29.222 C78.5639975,28.5779968 78.1906679,27.8220043 77.948,26.954 C77.7053321,26.0859957 77.584,25.1573383 77.584,24.168 C77.584,23.159995 77.7099987,22.1986712 77.962,21.284 C78.2140013,20.3693288 78.6059973,19.5666701 79.138,18.876 C79.6700027,18.1853299 80.3373293,17.6393353 81.14,17.238 C81.9426707,16.8366647 82.9039944,16.636 84.024,16.636 C85.1440056,16.636 86.072663,16.8506645 86.81,17.28 C87.547337,17.7093355 88.1353311,18.2786631 88.574,18.988 C89.0126689,19.6973369 89.3159992,20.5046621 89.484,21.41 C89.6520008,22.3153379 89.736,23.2439952 89.736,24.196 L79.32,24.196 Z M88,22.656 C88,22.0399969 87.9113342,21.4473362 87.734,20.878 C87.5566658,20.3086638 87.3000017,19.8046689 86.964,19.366 C86.6279983,18.9273311 86.2033359,18.5820013 85.69,18.33 C85.1766641,18.0779987 84.5840034,17.952 83.912,17.952 C83.2026631,17.952 82.577336,18.0919986 82.036,18.372 C81.494664,18.6520014 81.0373352,19.0206644 80.664,19.478 C80.2906648,19.9353356 79.9966677,20.4673303 79.782,21.074 C79.5673323,21.6806697 79.4320003,22.3013302 79.376,22.936 L88,22.936 L88,22.656 Z M108.148,31 L106.608,31 L102.38,18.708 L98.096,31 L96.444,31 L91.432,16.86 L93.364,16.86 L97.312,28.956 L101.512,16.86 L103.444,16.86 L107.504,28.816 L111.536,16.86 L113.272,16.86 L108.148,31 Z M124.812,31 L124.812,10.756 L136.824,10.756 L136.824,12.268 L126.632,12.268 L126.632,19.716 L136.432,19.716 L136.432,21.228 L126.632,21.228 L126.632,29.488 L137.244,29.488 L137.244,31 L124.812,31 Z M159.8,31 L159.8,22.46 C159.8,21.8439969 159.748667,21.2746693 159.646,20.752 C159.543333,20.2293307 159.356668,19.7766686 159.086,19.394 C158.815332,19.0113314 158.451336,18.7080011 157.994,18.484 C157.536664,18.2599989 156.96267,18.148 156.272,18.148 C155.469329,18.148 154.811336,18.2786654 154.298,18.54 C153.784664,18.8013346 153.374002,19.1559978 153.066,19.604 C152.757998,20.0520022 152.543334,20.5793303 152.422,21.186 C152.300666,21.7926697 152.24,22.4413299 152.24,23.132 L152.24,31 L150.532,31 L150.532,22.656 C150.532,22.0399969 150.485334,21.4566694 150.392,20.906 C150.298666,20.3553306 150.126001,19.8746687 149.874,19.464 C149.621999,19.0533313 149.267336,18.7313345 148.81,18.498 C148.352664,18.2646655 147.760004,18.148 147.032,18.148 C146.303996,18.148 145.683336,18.2879986 145.17,18.568 C144.656664,18.8480014 144.236668,19.221331 143.91,19.688 C143.583332,20.154669 143.345334,20.6866637 143.196,21.284 C143.046666,21.8813363 142.972,22.4973302 142.972,23.132 L142.972,31 L141.264,31 L141.264,20.248 C141.264,19.6879972 141.25,19.1233362 141.222,18.554 C141.194,17.9846638 141.18,17.4200028 141.18,16.86 L142.86,16.86 L142.972,19.324 C143.924005,17.5879913 145.37999,16.72 147.34,16.72 C148.516006,16.72 149.458663,16.9486644 150.168,17.406 C150.877337,17.8633356 151.446665,18.6426612 151.876,19.744 C152.361336,18.6799947 153.000663,17.9100024 153.794,17.434 C154.587337,16.9579976 155.562661,16.72 156.72,16.72 C157.746672,16.72 158.57733,16.8786651 159.212,17.196 C159.84667,17.5133349 160.331998,17.9519972 160.668,18.512 C161.004002,19.0720028 161.227999,19.7299962 161.34,20.486 C161.452001,21.2420038 161.508,22.049329 161.508,22.908 L161.508,31 L159.8,31 Z M171.996,31 L170.288,31 L164.464,16.86 L166.368,16.86 L171.324,29.152 L176.028,16.86 L177.792,16.86 L171.996,31 Z M180.664,12.884 L180.664,10.756 L182.708,10.756 L182.708,12.884 L180.664,12.884 Z M180.832,31 L180.832,16.86 L182.54,16.86 L182.54,31 L180.832,31 Z M197.088,31 L197.088,23.02 C197.088,22.3666634 197.055334,21.7460029 196.99,21.158 C196.924666,20.5699971 196.770668,20.0520022 196.528,19.604 C196.285332,19.1559978 195.926002,18.8013346 195.45,18.54 C194.973998,18.2786654 194.334671,18.148 193.532,18.148 C192.729329,18.148 192.052669,18.2926652 191.502,18.582 C190.951331,18.8713348 190.508002,19.2633309 190.172,19.758 C189.835998,20.2526691 189.593334,20.8219968 189.444,21.466 C189.294666,22.1100032 189.22,22.7773299 189.22,23.468 L189.22,31 L187.512,31 L187.512,20.864 C187.512,20.1919966 187.498,19.52467 187.47,18.862 C187.442,18.19933 187.428,17.5320034 187.428,16.86 L189.108,16.86 L189.22,19.212 C189.79867,18.353329 190.451996,17.7233353 191.18,17.322 C191.908004,16.9206647 192.794661,16.72 193.84,16.72 C194.792005,16.72 195.589997,16.8506654 196.234,17.112 C196.878003,17.3733346 197.386665,17.7466642 197.76,18.232 C198.133335,18.7173358 198.399333,19.3053299 198.558,19.996 C198.716667,20.6866701 198.796,21.4706623 198.796,22.348 L198.796,31 L197.088,31 Z M217.728,12.268 L217.728,31 L215.908,31 L215.908,12.268 L209.44,12.268 L209.44,10.756 L224.224,10.756 L224.224,12.268 L217.728,12.268 Z M233.228,31 C233.190667,30.6639983 233.153334,30.3233351 233.116,29.978 C233.078667,29.6326649 233.041334,29.2920017 233.004,28.956 C232.406664,29.8520045 231.73467,30.4679983 230.988,30.804 C230.24133,31.1400017 229.336005,31.308 228.272,31.308 C227.618663,31.308 226.998003,31.2240008 226.41,31.056 C225.821997,30.8879992 225.299336,30.6360017 224.842,30.3 C224.384664,29.9639983 224.020668,29.5346693 223.75,29.012 C223.479332,28.4893307 223.344,27.8733369 223.344,27.164 C223.344,26.4173296 223.479332,25.7826693 223.75,25.26 C224.020668,24.7373307 224.384664,24.3033351 224.842,23.958 C225.299336,23.6126649 225.821997,23.342001 226.41,23.146 C226.998003,22.949999 227.618663,22.8053338 228.272,22.712 C228.925337,22.6186662 229.578663,22.5626668 230.232,22.544 C230.885337,22.5253332 231.50133,22.516 232.08,22.516 L232.808,22.516 C232.826667,22.3479992 232.836,22.1846675 232.836,22.026 L232.836,21.536 C232.836,20.3226606 232.574669,19.4126697 232.052,18.806 C231.529331,18.1993303 230.642673,17.896 229.392,17.896 C228.477329,17.896 227.73067,18.0779982 227.152,18.442 C226.57333,18.8060018 226.228001,19.491995 226.116,20.5 L224.436,20.5 C224.436,19.7906631 224.580665,19.1886691 224.87,18.694 C225.159335,18.1993309 225.532664,17.7980015 225.99,17.49 C226.447336,17.1819985 226.974664,16.9580007 227.572,16.818 C228.169336,16.6779993 228.775997,16.608 229.392,16.608 C231.146675,16.608 232.439329,16.9953295 233.27,17.77 C234.100671,18.5446705 234.516,19.8093246 234.516,21.564 L234.516,25.764 C234.516,26.6600045 234.539333,27.5326624 234.586,28.382 C234.632667,29.2313376 234.702666,30.1039955 234.796,31 L233.228,31 Z M232.864,23.776 C232.621332,23.7573332 232.388001,23.7433334 232.164,23.734 C231.939999,23.7246666 231.706668,23.72 231.464,23.72 C230.866664,23.72 230.199337,23.7433331 229.462,23.79 C228.724663,23.8366669 228.034003,23.9719989 227.39,24.196 C226.745997,24.4200011 226.200002,24.7606644 225.752,25.218 C225.303998,25.6753356 225.08,26.3053293 225.08,27.108 C225.08,27.5933358 225.177999,28.0226648 225.374,28.396 C225.570001,28.7693352 225.831332,29.0819987 226.158,29.334 C226.484668,29.5860013 226.857998,29.7726661 227.278,29.894 C227.698002,30.0153339 228.131998,30.076 228.58,30.076 C229.588005,30.076 230.376664,29.8940018 230.946,29.53 C231.515336,29.1659982 231.944665,28.6853363 232.234,28.088 C232.523335,27.4906637 232.700666,26.8186704 232.766,26.072 C232.831334,25.3253296 232.864,24.5600039 232.864,23.776 Z M242.68,36.32 L240.944,36.32 L243.184,30.916 L237.248,16.86 L239.292,16.86 L244.024,28.704 L248.728,16.86 L250.436,16.86 L242.68,36.32 Z M253.448,31 L253.448,10.756 L255.156,10.756 L255.156,31 L253.448,31 Z M272.308,23.832 C272.308,24.8213383 272.163335,25.7686621 271.874,26.674 C271.584665,27.5793379 271.160003,28.3773299 270.6,29.068 C270.039997,29.7586701 269.349337,30.3046647 268.528,30.706 C267.706663,31.1073353 266.764005,31.308 265.7,31.308 C264.598661,31.308 263.632671,31.112002 262.802,30.72 C261.971329,30.327998 261.280669,29.7960034 260.73,29.124 C260.179331,28.4519966 259.764001,27.6633379 259.484,26.758 C259.203999,25.8526621 259.064,24.8773386 259.064,23.832 C259.064,22.8053282 259.208665,21.8533377 259.498,20.976 C259.787335,20.0986623 260.211997,19.3333366 260.772,18.68 C261.332003,18.0266634 262.022663,17.5133352 262.844,17.14 C263.665337,16.7666648 264.617328,16.58 265.7,16.58 C266.782672,16.58 267.739329,16.7619982 268.57,17.126 C269.400671,17.4900018 270.091331,17.9986634 270.642,18.652 C271.192669,19.3053366 271.607999,20.0753289 271.888,20.962 C272.168001,21.8486711 272.308,22.8053282 272.308,23.832 Z M270.488,23.832 C270.488,23.0853296 270.399334,22.3573369 270.222,21.648 C270.044666,20.9386631 269.760002,20.313336 269.368,19.772 C268.975998,19.230664 268.47667,18.7966683 267.87,18.47 C267.26333,18.1433317 266.540004,17.98 265.7,17.98 C264.859996,17.98 264.13667,18.1433317 263.53,18.47 C262.92333,18.7966683 262.424002,19.230664 262.032,19.772 C261.639998,20.313336 261.350668,20.9339965 261.164,21.634 C260.977332,22.3340035 260.884,23.0666628 260.884,23.832 C260.884,24.5786704 260.972666,25.320663 261.15,26.058 C261.327334,26.795337 261.611998,27.4533304 262.004,28.032 C262.396002,28.6106696 262.89533,29.0819982 263.502,29.446 C264.10867,29.8100018 264.841329,29.992 265.7,29.992 C266.540004,29.992 267.26333,29.8100018 267.87,29.446 C268.47667,29.0819982 268.971331,28.6060029 269.354,28.018 C269.736669,27.4299971 270.021332,26.767337 270.208,26.03 C270.394668,25.292663 270.488,24.5600036 270.488,23.832 Z M283.048,18.54 C282.693332,18.465333 282.310669,18.428 281.9,18.428 C281.134663,18.428 280.500003,18.5353323 279.996,18.75 C279.491998,18.9646677 279.086002,19.267998 278.778,19.66 C278.469998,20.052002 278.250667,20.5326638 278.12,21.102 C277.989333,21.6713362 277.924,22.3013299 277.924,22.992 L277.924,31 L276.216,31 L276.216,21.004 C276.216,20.3133299 276.206667,19.6226701 276.188,18.932 L276.132,16.86 L277.812,16.86 L277.924,19.072 C278.446669,18.2506626 279.062663,17.6626684 279.772,17.308 C280.481337,16.9533316 281.311995,16.776 282.264,16.776 C282.394667,16.776 282.525333,16.7806666 282.656,16.79 C282.786667,16.7993334 282.917333,16.8133332 283.048,16.832 L283.048,18.54 Z"></path>
        </g>
    </g>
</svg>